<svg xmlns="http://www.w3.org/2000/svg" viewBox="0 0 117.76 117.76"><defs><style>.cls-1{fill:#c10230;}</style></defs><title>Asset 1</title><g id="Layer_2" data-name="Layer 2"><g id="Laag_1" data-name="Laag 1"><path class="cls-1" d="M75.23,26.69a18.8,18.8,0,0,0-12.78,5L44.73,49.4A18.85,18.85,0,0,0,40.8,69.7l2.28,4.93h10.6l-.18-.38L49.56,66a9.45,9.45,0,0,1-.66-3.45,9.25,9.25,0,0,1,2.6-6.46L69,38.61A9.32,9.32,0,0,1,82,52L69.27,64.65l5.64,7.9L88.74,58.66a18.84,18.84,0,0,0-13.51-32Z"/><path class="cls-1" d="M60.37,60.66a19.54,19.54,0,0,0-3.84-3.49l-1.94,1.95a4.87,4.87,0,0,0-1.36,3.42,4.82,4.82,0,0,0,.31,1.73l2.7,5.67L66.29,84h10.8L60.6,61Z"/><path class="cls-1" d="M46,79.53l3.34,4.74h-4a10.9,10.9,0,0,1-9.56-16.16A22.72,22.72,0,0,1,36,56a19.68,19.68,0,0,0,9.34,37H55.48l0,.06H66.27L56.69,79.53Z"/><path class="cls-1" d="M109.64,88.67a58.91,58.91,0,1,0-22.13,21.64l23.27,7a5.19,5.19,0,0,0,1.45.21,5,5,0,0,0,4.79-6.63ZM58.88,108.85a50,50,0,1,1,50-50A50,50,0,0,1,58.88,108.85Z"/></g></g></svg>